# xmcd CD database file
#
# Track frame offsets:
#	150
#	24741
#	45416
#	69512
#	99094
#	119332
#	150458
#	172787
#
# Disc length: 2745 seconds
#
# Revision: 0
# Processed by: cddbd v1.5.2PL0 Copyright (c) Steve Scherf et al.
# Submitted via: CDex 1.51
#
DISCID=530ab708
DTITLE=Gene Shaw Quintet - Break Through
DYEAR=2008
DGENRE=Jazz
TTITLE0=Autumm Walk  . . . . .  { rec. October 11, 1962 }
TTITLE1=AD's Blues
TTITLE2=Marj
TTITLE3=Six Bits
TTITLE4=The Thing
TTITLE5=Tonight
TTITLE6=Our Tune
TTITLE7=It's A Long Way
EXTD=YEAR: 2008
EXTT0=
EXTT1=
EXTT2=
EXTT3=
EXTT4=
EXTT5=
EXTT6=
EXTT7=
PLAYORDER=
